{
  "accessors": [
    {
      "bufferView": 2,
      "componentType": 5126,
      "count": 900,
      "max": [
        23520.53125,
        18152.556640625,
        13085.779296875
      ],
      "min": [
        -22677.171875,
        -15986.9111328125,
        -25462.880859375
      ],
      "type": "VEC3"
    },
    {
      "bufferView": 2,
      "byteOffset": 10800,
      "componentType": 5126,
      "count": 900,
      "max": [
        0.9998410940170288,
        0.9998000264167786,
        0.9999529123306274
      ],
      "min": [
        -0.9998272657394409,
        -0.9998000264167786,
        -0.9999955892562866
      ],
      "type": "VEC3"
    },
    {
      "bufferView": 1,
      "componentType": 5126,
      "count": 900,
      "max": [
        0.2674996852874756,
        0.11984512954950333
      ],
      "min": [
        0.2514791488647461,
        0.10722976177930832
      ],
      "type": "VEC2"
    },
    {
      "bufferView": 0,
      "componentType": 5125,
      "count": 5388,
      "type": "SCALAR"
    },
    {
      "bufferView": 2,
      "byteOffset": 21600,
      "componentType": 5126,
      "count": 2052,
      "max": [
        41002.41796875,
        29943.75,
        22775.763671875
      ],
      "min": [
        -30402.515625,
        -18270.505859375,
        -18783.404296875
      ],
      "type": "VEC3"
    },
    {
      "bufferView": 2,
      "byteOffset": 46224,
      "componentType": 5126,
      "count": 2052,
      "max": [
        0.9985097646713257,
        0.997832715511322,
        0.9984250068664551
      ],
      "min": [
        -0.9991929531097412,
        -0.9993361234664917,
        -0.999998152256012
      ],
      "type": "VEC3"
    },
    {
      "bufferView": 1,
      "byteOffset": 7200,
      "componentType": 5126,
      "count": 2052,
      "max": [
        0.47272732853889465,
        0.8434826731681824
      ],
      "min": [
        0.46159234642982483,
        0.8373668193817139
      ],
      "type": "VEC2"
    },
    {
      "bufferView": 0,
      "byteOffset": 21552,
      "componentType": 5125,
      "count": 12168,
      "type": "SCALAR"
    },
    {
      "bufferView": 2,
      "byteOffset": 70848,
      "componentType": 5126,
      "count": 900,
      "max": [
        23520.623046875,
        18152.556640625,
        13085.779296875
      ],
      "min": [
        -22677.08203125,
        -15986.9111328125,
        -25462.880859375
      ],
      "type": "VEC3"
    },
    {
      "bufferView": 2,
      "byteOffset": 81648,
      "componentType": 5126,
      "count": 900,
      "max": [
        0.9998411536216736,
        0.9998000264167786,
        0.9999529719352722
      ],
      "min": [
        -0.9998272657394409,
        -0.9998000264167786,
        -0.9999955296516418
      ],
      "type": "VEC3"
    },
    {
      "bufferView": 1,
      "byteOffset": 23616,
      "componentType": 5126,
      "count": 900,
      "max": [
        0.7416932582855225,
        0.47905367612838745
      ],
      "min": [
        0.725672721862793,
        0.46643829345703125
      ],
      "type": "VEC2"
    },
    {
      "bufferView": 0,
      "byteOffset": 70224,
      "componentType": 5125,
      "count": 5388,
      "type": "SCALAR"
    },
    {
      "bufferView": 2,
      "byteOffset": 92448,
      "componentType": 5126,
      "count": 2052,
      "max": [
        41002.4921875,
        29943.75,
        22775.763671875
      ],
      "min": [
        -30402.3984375,
        -18270.505859375,
        -18783.404296875
      ],
      "type": "VEC3"
    },
    {
      "bufferView": 2,
      "byteOffset": 117072,
      "componentType": 5126,
      "count": 2052,
      "max": [
        0.9985113143920898,
        0.9978325366973877,
        0.9984250664710999
      ],
      "min": [
        -0.9991946816444397,
        -0.9993361830711365,
        -0.9999982118606567
      ],
      "type": "VEC3"
    },
    {
      "bufferView": 1,
      "byteOffset": 30816,
      "componentType": 5126,
      "count": 2052,
      "max": [
        0.40821123123168945,
        0.3290230333805084
      ],
      "min": [
        0.39707624912261963,
        0.3229072391986847
      ],
      "type": "VEC2"
    },
    {
      "bufferView": 0,
      "byteOffset": 91776,
      "componentType": 5125,
      "count": 12168,
      "type": "SCALAR"
    },
    {
      "bufferView": 2,
      "byteOffset": 141696,
      "componentType": 5126,
      "count": 900,
      "max": [
        23520.703125,
        18152.556640625,
        13085.779296875
      ],
      "min": [
        -22677.001953125,
        -15986.9111328125,
        -25462.880859375
      ],
      "type": "VEC3"
    },
    {
      "bufferView": 2,
      "byteOffset": 152496,
      "componentType": 5126,
      "count": 900,
      "max": [
        0.9998412132263184,
        0.9998000264167786,
        0.9999529123306274
      ],
      "min": [
        -0.9998273253440857,
        -0.9997999668121338,
        -0.9999955296516418
      ],
      "type": "VEC3"
    },
    {
      "bufferView": 1,
      "byteOffset": 47232,
      "componentType": 5126,
      "count": 900,
      "max": [
        0.267499715089798,
        0.12593334913253784
      ],
      "min": [
        0.2514791786670685,
        0.11331801116466522
      ],
      "type": "VEC2"
    },
    {
      "bufferView": 0,
      "byteOffset": 140448,
      "componentType": 5125,
      "count": 5388,
      "type": "SCALAR"
    },
    {
      "bufferView": 2,
      "byteOffset": 163296,
      "componentType": 5126,
      "count": 2052,
      "max": [
        41002.5390625,
        29943.75,
        22775.763671875
      ],
      "min": [
        -30402.34375,
        -18270.505859375,
        -18783.404296875
      ],
      "type": "VEC3"
    },
    {
      "bufferView": 2,
      "byteOffset": 187920,
      "componentType": 5126,
      "count": 2052,
      "max": [
        0.9985101819038391,
        0.9978325366973877,
        0.9984250068664551
      ],
      "min": [
        -0.9991941452026367,
        -0.9993362426757813,
        -0.9999982118606567
      ],
      "type": "VEC3"
    },
    {
      "bufferView": 1,
      "byteOffset": 54432,
      "componentType": 5126,
      "count": 2052,
      "max": [
        0.4307918846607208,
        0.49036240577697754
      ],
      "min": [
        0.419656902551651,
        0.48424652218818665
      ],
      "type": "VEC2"
    },
    {
      "bufferView": 0,
      "byteOffset": 162000,
      "componentType": 5125,
      "count": 12168,
      "type": "SCALAR"
    },
    {
      "bufferView": 2,
      "byteOffset": 212544,
      "componentType": 5126,
      "count": 900,
      "max": [
        23520.66015625,
        18152.556640625,
        13085.779296875
      ],
      "min": [
        -22677.05078125,
        -15986.9111328125,
        -25462.880859375
      ],
      "type": "VEC3"
    },
    {
      "bufferView": 2,
      "byteOffset": 223344,
      "componentType": 5126,
      "count": 900,
      "max": [
        0.9998412132263184,
        0.9998000264167786,
        0.9999529719352722
      ],
      "min": [
        -0.9998272657394409,
        -0.9998000264167786,
        -0.9999955296516418
      ],
      "type": "VEC3"
    },
    {
      "bufferView": 1,
      "byteOffset": 70848,
      "componentType": 5126,
      "count": 900,
      "max": [
        0.7771771550178528,
        0.4881860613822937
      ],
      "min": [
        0.7611566185951233,
        0.4755707383155823
      ],
      "type": "VEC2"
    },
    {
      "bufferView": 0,
      "byteOffset": 210672,
      "componentType": 5125,
      "count": 5388,
      "type": "SCALAR"
    },
    {
      "bufferView": 2,
      "byteOffset": 234144,
      "componentType": 5126,
      "count": 2052,
      "max": [
        41002.53125,
        29943.75,
        22775.763671875
      ],
      "min": [
        -30402.361328125,
        -18270.505859375,
        -18783.404296875
      ],
      "type": "VEC3"
    },
    {
      "bufferView": 2,
      "byteOffset": 258768,
      "componentType": 5126,
      "count": 2052,
      "max": [
        0.9985114336013794,
        0.9978325963020325,
        0.9984250664710999
      ],
      "min": [
        -0.9991947412490845,
        -0.9993361830711365,
        -0.9999982118606567
      ],
      "type": "VEC3"
    },
    {
      "bufferView": 1,
      "byteOffset": 78048,
      "componentType": 5126,
      "count": 2052,
      "max": [
        0.4114370346069336,
        0.27118435502052307
      ],
      "min": [
        0.40030205249786377,
        0.26506856083869934
      ],
      "type": "VEC2"
    },
    {
      "bufferView": 0,
      "byteOffset": 232224,
      "componentType": 5125,
      "count": 12168,
      "type": "SCALAR"
    }
  ],
  "asset": {
    "extras": {
      "author": "samiwaiba2001 (https://sketchfab.com/samiwaiba2001)",
      "license": "CC-BY-4.0 (http://creativecommons.org/licenses/by/4.0/)",
      "source": "https://sketchfab.com/3d-models/trees-collection-8c41b1a6de034a5ca8f96bff51d48809",
      "title": "trees collection"
    },
    "generator": "Sketchfab-12.65.0",
    "version": "2.0"
  },
  "bufferViews": [
    {
      "buffer": 0,
      "byteLength": 280896,
      "name": "floatBufferViews",
      "target": 34963
    },
    {
      "buffer": 0,
      "byteLength": 94464,
      "byteOffset": 280896,
      "byteStride": 8,
      "name": "floatBufferViews",
      "target": 34962
    },
    {
      "buffer": 0,
      "byteLength": 283392,
      "byteOffset": 375360,
      "byteStride": 12,
      "name": "floatBufferViews",
      "target": 34962
    }
  ],
  "buffers": [
    {
      "byteLength": 658752,
      "uri": "scene.bin"
    }
  ],
  "images": [
    {
      "uri": "textures/Material.003_baseColor.jpeg"
    }
  ],
  "materials": [
    {
      "doubleSided": true,
      "name": "Material.003",
      "pbrMetallicRoughness": {
        "baseColorTexture": {
          "index": 0
        },
        "metallicFactor": 0.0,
        "roughnessFactor": 0.8211145618000169
      }
    },
    {
      "doubleSided": true,
      "name": "Material.004",
      "pbrMetallicRoughness": {
        "baseColorTexture": {
          "index": 0
        },
        "metallicFactor": 0.0,
        "roughnessFactor": 0.8211145618000169
      }
    },
    {
      "doubleSided": true,
      "name": "Material.005",
      "pbrMetallicRoughness": {
        "baseColorTexture": {
          "index": 0
        },
        "metallicFactor": 0.0,
        "roughnessFactor": 0.8211145618000169
      }
    },
    {
      "doubleSided": true,
      "name": "Material.006",
      "pbrMetallicRoughness": {
        "baseColorTexture": {
          "index": 0
        },
        "metallicFactor": 0.0,
        "roughnessFactor": 0.8211145618000169
      }
    },
    {
      "doubleSided": true,
      "name": "Material.007",
      "pbrMetallicRoughness": {
        "baseColorTexture": {
          "index": 0
        },
        "metallicFactor": 0.0,
        "roughnessFactor": 0.8211145618000169
      }
    },
    {
      "doubleSided": true,
      "name": "Material.008",
      "pbrMetallicRoughness": {
        "baseColorTexture": {
          "index": 0
        },
        "metallicFactor": 0.0,
        "roughnessFactor": 0.8211145618000169
      }
    },
    {
      "doubleSided": true,
      "name": "Material.009",
      "pbrMetallicRoughness": {
        "baseColorTexture": {
          "index": 0
        },
        "metallicFactor": 0.0,
        "roughnessFactor": 0.8211145618000169
      }
    },
    {
      "doubleSided": true,
      "name": "Material.010",
      "pbrMetallicRoughness": {
        "baseColorTexture": {
          "index": 0
        },
        "metallicFactor": 0.0,
        "roughnessFactor": 0.8211145618000169
      }
    }
  ],
  "meshes": [
    {
      "name": "Plane.004_Material.003_0",
      "primitives": [
        {
          "attributes": {
            "NORMAL": 1,
            "POSITION": 0,
            "TEXCOORD_0": 2
          },
          "indices": 3,
          "material": 0,
          "mode": 4
        }
      ]
    },
    {
      "name": "Plane.004_Material.004_0",
      "primitives": [
        {
          "attributes": {
            "NORMAL": 5,
            "POSITION": 4,
            "TEXCOORD_0": 6
          },
          "indices": 7,
          "material": 1,
          "mode": 4
        }
      ]
    },
    {
      "name": "Plane_Material.005_0",
      "primitives": [
        {
          "attributes": {
            "NORMAL": 9,
            "POSITION": 8,
            "TEXCOORD_0": 10
          },
          "indices": 11,
          "material": 2,
          "mode": 4
        }
      ]
    },
    {
      "name": "Plane_Material.006_0",
      "primitives": [
        {
          "attributes": {
            "NORMAL": 13,
            "POSITION": 12,
            "TEXCOORD_0": 14
          },
          "indices": 15,
          "material": 3,
          "mode": 4
        }
      ]
    },
    {
      "name": "Plane.005_Material.007_0",
      "primitives": [
        {
          "attributes": {
            "NORMAL": 17,
            "POSITION": 16,
            "TEXCOORD_0": 18
          },
          "indices": 19,
          "material": 4,
          "mode": 4
        }
      ]
    },
    {
      "name": "Plane.005_Material.008_0",
      "primitives": [
        {
          "attributes": {
            "NORMAL": 21,
            "POSITION": 20,
            "TEXCOORD_0": 22
          },
          "indices": 23,
          "material": 5,
          "mode": 4
        }
      ]
    },
    {
      "name": "Plane.001_Material.009_0",
      "primitives": [
        {
          "attributes": {
            "NORMAL": 25,
            "POSITION": 24,
            "TEXCOORD_0": 26
          },
          "indices": 27,
          "material": 6,
          "mode": 4
        }
      ]
    },
    {
      "name": "Plane.001_Material.010_0",
      "primitives": [
        {
          "attributes": {
            "NORMAL": 29,
            "POSITION": 28,
            "TEXCOORD_0": 30
          },
          "indices": 31,
          "material": 7,
          "mode": 4
        }
      ]
    }
  ],
  "nodes": [
    {
      "children": [
        1
      ],
      "matrix": [
        1.0,
        0.0,
        0.0,
        0.0,
        0.0,
        2.220446049250313e-16,
        -1.0,
        0.0,
        0.0,
        1.0,
        2.220446049250313e-16,
        0.0,
        0.0,
        0.0,
        0.0,
        1.0
      ],
      "name": "Sketchfab_model"
    },
    {
      "children": [
        2
      ],
      "matrix": [
        0.009999999776482582,
        0.0,
        0.0,
        0.0,
        0.0,
        0.0,
        0.009999999776482582,
        0.0,
        0.0,
        -0.009999999776482582,
        0.0,
        0.0,
        0.0,
        0.0,
        0.0,
        1.0
      ],
      "name": "1a1776da7ea14300a7e0303291bbfd89.fbx"
    },
    {
      "children": [
        3,
        6,
        9,
        12
      ],
      "name": "RootNode"
    },
    {
      "children": [
        4,
        5
      ],
      "matrix": [
        -0.009999999776482506,
        -8.742277785051317e-10,
        8.742277461942444e-10,
        0.0,
        8.742279164126576e-10,
        -1.947071769148619e-09,
        0.009999999776482355,
        0.0,
        -8.742276082866917e-10,
        0.009999999776482355,
        1.94707184353356e-09,
        0.0,
        -393.2515869140625,
        249.7249298095703,
        -84.5570297241211,
        1.0
      ],
      "name": "Plane.004"
    },
    {
      "mesh": 0,
      "name": "Plane.004_Material.003_0"
    },
    {
      "mesh": 1,
      "name": "Plane.004_Material.004_0"
    },
    {
      "children": [
        7,
        8
      ],
      "matrix": [
        -0.009999999776482506,
        -8.742277785051317e-10,
        8.742277461942444e-10,
        0.0,
        8.742279164126576e-10,
        -1.947071769148619e-09,
        0.009999999776482355,
        0.0,
        -8.742276082866917e-10,
        0.009999999776482355,
        1.94707184353356e-09,
        0.0,
        1352.2164306640625,
        249.7249298095703,
        -84.55731964111328,
        1.0
      ],
      "name": "Plane"
    },
    {
      "mesh": 2,
      "name": "Plane_Material.005_0"
    },
    {
      "mesh": 3,
      "name": "Plane_Material.006_0"
    },
    {
      "children": [
        10,
        11
      ],
      "matrix": [
        -0.009999999776482506,
        -8.742277785051317e-10,
        8.742277461942444e-10,
        0.0,
        8.742279164126576e-10,
        -1.947071769148619e-09,
        0.009999999776482355,
        0.0,
        -8.742276082866917e-10,
        0.009999999776482355,
        1.94707184353356e-09,
        0.0,
        -1234.8680419921875,
        249.7249298095703,
        -84.55695343017578,
        1.0
      ],
      "name": "Plane.005"
    },
    {
      "mesh": 4,
      "name": "Plane.005_Material.007_0"
    },
    {
      "mesh": 5,
      "name": "Plane.005_Material.008_0"
    },
    {
      "children": [
        13,
        14
      ],
      "matrix": [
        -0.009999999776482506,
        -8.742277785051317e-10,
        8.742277461942444e-10,
        0.0,
        8.742279164126576e-10,
        -1.947071769148619e-09,
        0.009999999776482355,
        0.0,
        -8.742276082866917e-10,
        0.009999999776482355,
        1.94707184353356e-09,
        0.0,
        491.72076416015625,
        249.7249298095703,
        -84.5572509765625,
        1.0
      ],
      "name": "Plane.001"
    },
    {
      "mesh": 6,
      "name": "Plane.001_Material.009_0"
    },
    {
      "mesh": 7,
      "name": "Plane.001_Material.010_0"
    }
  ],
  "samplers": [
    {
      "magFilter": 9729,
      "minFilter": 9987,
      "wrapS": 10497,
      "wrapT": 10497
    }
  ],
  "scene": 0,
  "scenes": [
    {
      "name": "Sketchfab_Scene",
      "nodes": [
        0
      ]
    }
  ],
  "textures": [
    {
      "sampler": 0,
      "source": 0
    }
  ]
}
